<svg width="730" height="769" viewBox="0 0 730 769" fill="none" xmlns="http://www.w3.org/2000/svg">
<circle cx="365" cy="365" r="365" fill="#E9F6FF"/>
<mask id="mask0_1192_401" style="mask-type:luminance" maskUnits="userSpaceOnUse" x="0" y="0" width="730" height="730">
<path d="M365 730C566.584 730 730 566.584 730 365C730 163.416 566.584 0 365 0C163.416 0 0 163.416 0 365C0 566.584 163.416 730 365 730Z" fill="white"/>
</mask>
<g mask="url(#mask0_1192_401)">
<path d="M760.236 568.798H42.1855V739.713H760.236V568.798Z" fill="#00BDE0"/>
<path d="M246.583 582.349H376.017C376.811 582.084 377.076 581.29 376.811 580.496L343.46 463.767C343.195 462.973 342.401 462.709 341.607 462.973L277.287 466.944C276.493 467.208 276.229 468.002 276.493 468.796L244.73 581.555C244.995 582.084 245.789 582.613 246.583 582.349Z" fill="#A3DAFF"/>
<path d="M259.82 582.348H383.43C384.224 582.083 384.489 581.289 384.224 580.495L352.991 468.267C352.726 467.473 351.932 467.208 351.138 467.473L290.524 469.855C289.73 470.119 289.465 470.914 289.73 471.708L257.967 581.289C258.231 582.083 259.026 582.613 259.82 582.348Z" fill="#B7E0FB"/>
<path d="M91.21 506.118H522.391C538.537 506.118 551.771 492.883 551.771 476.737V165.461C551.771 149.315 538.537 136.081 522.391 136.081H92.5335C77.9755 136.081 66.0645 147.992 66.0645 162.55V480.708C66.0645 494.736 77.4461 506.118 91.21 506.118Z" fill="white"/>
<path d="M114.768 506.118H532.185C550.978 506.118 566.33 490.766 566.33 471.973V154.344C566.33 144.286 558.124 135.816 547.802 135.816H98.6221C88.5638 135.816 80.0938 144.021 80.0938 154.344V471.443C80.0938 490.501 95.7105 506.118 114.768 506.118Z" fill="#122D68"/>
<path d="M80.0938 463.767V491.295C80.0938 499.5 86.711 506.117 94.9164 506.117H551.507C559.713 506.117 566.33 499.5 566.33 491.295V463.767H80.0938Z" fill="white"/>
<path d="M100.405 440.444L340.215 440.444L340.215 160.667L100.405 160.667L100.405 440.444Z" fill="#334A7E"/>
<path d="M100.219 429.228H323.088L323.088 160.832H100.219L100.219 429.228Z" fill="#031B4E"/>
<path d="M323.608 327.188V312.365L312.755 308.659C312.226 305.218 311.167 302.042 310.109 298.866L317.255 277.426H310.373L298.992 279.543C297.933 278.22 296.874 277.161 295.551 275.838C294.492 274.779 293.168 273.455 291.845 272.397L288.139 253.604H281.257L272.523 261.28C269.346 260.221 266.17 259.427 262.994 258.633L259.288 247.781H244.201L240.495 258.633C237.054 259.162 233.878 260.221 230.701 261.28L229.113 253.604H221.967L208.997 261.015L211.114 272.397C209.791 273.455 208.468 274.514 207.409 275.838C206.085 276.896 205.027 278.22 203.968 279.543L192.586 277.426L185.175 290.396L192.851 299.13C191.792 302.307 190.998 305.483 190.204 308.924L179.352 312.63V327.452L190.204 331.158C190.733 334.599 191.792 337.775 192.851 340.952L185.175 349.686L192.586 362.656L203.968 360.539C205.027 361.862 206.085 362.921 207.409 364.244C208.468 365.303 209.791 366.626 211.114 367.685L208.732 379.067L228.584 386.478L230.172 378.802C233.348 379.861 236.525 380.655 239.966 381.449L243.671 392.301H258.494L262.2 381.449C265.641 380.92 268.817 379.861 271.993 378.802L280.728 386.478H287.875L291.58 367.685C292.904 366.626 293.962 365.568 295.286 364.244C296.345 363.186 297.668 361.862 298.727 360.539L310.109 362.656H317.255L310.109 340.952C311.167 337.775 311.961 334.599 312.755 331.158L323.608 327.188ZM251.612 329.305C246.318 329.305 242.083 325.07 242.083 319.776C242.083 314.482 246.318 310.247 251.612 310.247C256.906 310.247 261.141 314.482 261.141 319.776C261.141 325.07 256.906 329.305 251.612 329.305Z" fill="#59768E"/>
<path d="M330.754 327.188V312.365L319.902 308.659C319.373 305.218 318.314 302.042 317.255 298.866L324.931 290.131L317.52 277.161L306.138 279.279C305.079 277.955 304.021 276.897 302.697 275.573C301.638 274.514 300.315 273.191 298.991 272.132L301.109 260.75L288.139 253.339L279.404 261.015C276.228 259.956 273.052 259.162 269.876 258.368L266.17 247.516H251.347L247.642 258.368C244.201 258.898 241.024 259.956 237.848 261.015L229.113 253.339L216.143 260.75L218.261 272.132C216.937 273.191 215.614 274.25 214.555 275.573C213.232 276.632 212.173 277.955 211.114 279.279L199.733 277.161L192.321 290.131L199.997 298.866C198.939 302.042 198.144 305.218 197.35 308.659L186.498 312.365V327.188L197.35 330.893C197.88 334.334 198.939 337.511 199.997 340.687L192.321 349.422L199.733 362.391L211.114 360.274C212.173 361.597 213.232 362.656 214.555 363.98C215.614 365.038 216.937 366.362 218.261 367.421L215.879 378.802L228.848 386.214L237.583 378.538C240.76 379.596 243.936 380.39 247.377 381.184L251.083 392.037H265.905L269.611 381.184C273.052 380.655 276.228 379.596 279.404 378.538L288.139 386.214L301.109 378.802L298.991 367.421C300.315 366.362 301.374 365.303 302.697 363.98C303.756 362.921 305.079 361.597 306.138 360.274L317.52 362.391L324.931 349.422L317.255 340.687C318.314 337.511 319.108 334.334 319.902 330.893L330.754 327.188ZM258.759 329.305C253.465 329.305 249.23 325.07 249.23 319.776C249.23 314.483 253.465 310.248 258.759 310.248C264.052 310.248 268.287 314.483 268.287 319.776C268.287 325.07 263.788 329.305 258.759 329.305Z" fill="#6F89A8"/>
<path d="M271.73 225.017V219.194L267.495 217.605C267.23 216.282 266.965 214.959 266.436 213.635L269.348 205.165H266.436L261.936 205.959C261.407 205.43 261.142 204.9 260.613 204.371C260.083 203.842 259.554 203.312 259.025 203.047L257.701 195.636H254.79L251.349 198.548C250.025 198.018 248.702 197.754 247.378 197.489L245.79 193.254H239.967L238.379 197.489C237.055 197.754 235.732 198.018 234.408 198.548L233.879 195.636H230.968L225.938 198.548L226.732 203.047C226.203 203.577 225.674 203.842 225.144 204.371C224.615 204.9 224.086 205.43 223.821 205.959L222.233 205.165H219.321L216.41 210.194L219.321 213.635C218.792 214.959 218.527 216.282 218.262 217.605L214.027 219.194V225.017L218.262 226.605C218.527 227.928 218.792 229.252 219.321 230.575L216.41 234.016L219.321 239.045H222.233L223.821 238.251C224.35 238.781 224.615 239.31 225.144 239.839C225.674 240.369 226.203 240.898 226.732 241.163L225.938 245.663L230.968 248.574H233.879C233.879 248.574 237.055 246.457 238.379 246.457L239.967 250.692H245.79L247.378 246.457C248.702 246.192 250.025 245.927 251.349 245.398L254.79 248.31H257.701L260.083 245.398L259.289 240.898C259.819 240.369 260.348 240.104 260.878 239.575C261.407 239.045 261.672 238.516 262.201 237.987L266.701 238.781H269.612L269.877 233.752L266.965 230.311C267.495 228.987 267.759 227.664 268.024 226.34L271.73 225.017ZM243.143 225.811C241.026 225.811 239.438 224.223 239.438 222.105C239.438 219.988 241.026 218.399 243.143 218.399C245.261 218.399 246.849 219.988 246.849 222.105C246.849 224.223 245.261 225.811 243.143 225.811Z" fill="#6280A5"/>
<path d="M274.644 225.017V219.194L270.409 217.605C270.144 216.282 269.879 214.959 269.35 213.635L272.262 210.194L269.35 205.165L264.85 205.959C264.321 205.43 264.056 204.9 263.527 204.371C262.998 203.842 262.468 203.312 261.939 203.047L262.733 198.548L257.704 195.636L254.263 198.548C252.939 198.018 251.616 197.754 250.292 197.489L248.704 193.254H242.881L241.293 197.489C239.969 197.754 238.646 198.018 237.323 198.548L233.882 195.636L228.852 198.548L229.647 203.047C229.117 203.577 228.588 203.842 228.058 204.371C227.529 204.9 227 205.43 226.735 205.959L222.235 205.165L219.324 210.194L222.235 213.635C221.706 214.959 221.441 216.282 221.176 217.605L216.941 219.194V225.017L221.176 226.605C221.441 227.928 221.706 229.252 222.235 230.575L219.324 234.016L222.235 239.045L226.735 238.251C227.264 238.781 227.529 239.31 228.058 239.839C228.588 240.369 229.117 240.898 229.647 241.163L228.852 245.663L233.882 248.574L237.323 245.663C238.646 246.192 239.969 246.457 241.293 246.721L242.881 250.956H248.704L250.292 246.721C251.616 246.457 252.939 246.192 254.263 245.663L257.704 248.574L262.733 245.663L261.939 241.163C262.468 240.633 262.998 240.369 263.527 239.839C264.056 239.31 264.321 238.781 264.85 238.251L269.35 239.045L272.262 234.016L269.35 230.575C269.879 229.252 270.144 227.928 270.409 226.605L274.644 225.017ZM246.057 225.811C243.94 225.811 242.352 224.223 242.352 222.105C242.352 219.988 243.94 218.399 246.057 218.399C248.175 218.399 249.763 219.988 249.763 222.105C249.763 224.223 248.175 225.811 246.057 225.811Z" fill="#728EB7"/>
<path d="M244.996 216.282C241.555 216.282 238.908 218.929 238.908 222.105C238.908 225.281 241.555 227.928 244.731 227.928C244.731 227.928 244.731 227.928 244.996 227.928H252.407V216.282H244.996Z" fill="#233A3F"/>
<path d="M224.878 369.009V358.421L216.937 355.774C216.408 353.392 215.878 351.01 215.084 348.892L220.113 333.54H215.084L206.879 335.128C206.085 334.334 205.291 333.276 204.497 332.481C203.702 331.687 202.644 330.893 201.85 330.099L199.203 316.6H194.174L187.821 321.894C185.703 321.1 183.321 320.57 180.939 320.041L178.292 312.365H167.705L165.058 320.041C162.675 320.57 160.293 321.1 158.176 321.894L157.117 316.6H152.088L142.824 321.894L144.412 330.099C143.618 330.893 142.559 331.687 141.765 332.481C140.971 333.276 140.177 334.334 139.383 335.128L136.206 333.54H131.177L125.883 342.804L131.177 348.892C130.383 351.01 129.854 353.392 129.324 355.774L121.648 358.421V369.009L129.324 371.656C129.854 374.038 130.383 376.42 131.177 378.538L125.883 384.625L131.177 393.89H136.206L139.383 392.301C140.177 393.096 140.971 394.154 141.765 394.948C142.559 395.742 143.618 396.537 144.412 397.331L142.824 405.271L152.088 410.565H157.117C157.117 410.565 162.94 406.595 165.322 406.859L167.969 414.535H178.557L181.204 406.859C183.586 406.33 185.968 405.801 188.086 405.007L194.174 410.565H199.203L203.438 405.271L201.85 397.066C202.644 396.272 203.702 395.478 204.497 394.684C205.291 393.89 206.085 392.831 206.879 392.037L215.084 393.625H220.113L220.378 384.361L215.084 378.273C215.878 376.155 216.408 373.773 216.937 371.391L224.878 369.009ZM173.528 370.597C169.822 370.597 166.646 367.685 166.646 363.715C166.646 360.009 169.557 356.833 173.528 356.833C177.233 356.833 180.41 359.745 180.41 363.715C180.145 367.421 177.233 370.597 173.528 370.597Z" fill="#7189A5"/>
<path d="M229.907 369.009V358.421L221.966 355.774C221.437 353.392 220.907 351.01 220.113 348.892L225.407 342.804L220.113 333.54L211.908 335.128C211.114 334.334 210.32 333.276 209.526 332.481C208.732 331.687 207.673 330.893 206.879 330.099L208.467 321.894L199.203 316.6L192.85 321.894C190.733 321.1 188.351 320.57 185.968 320.041L183.321 312.365H172.734L170.087 320.041C167.705 320.57 165.322 321.1 163.205 321.894L157.117 316.6L147.853 321.894L149.441 330.099C148.647 330.893 147.588 331.687 146.794 332.481C146 333.276 145.206 334.334 144.412 335.128L136.207 333.54L130.913 342.804L136.207 348.892C135.412 351.01 134.883 353.392 134.354 355.774L126.678 358.421V369.009L134.354 371.656C134.883 374.038 135.412 376.42 136.207 378.538L130.913 384.625L136.207 393.89L144.412 392.301C145.206 393.096 146 394.154 146.794 394.948C147.588 395.742 148.647 396.537 149.441 397.331L147.853 405.271L157.117 410.565L163.205 405.271C165.322 406.065 167.705 406.595 170.087 407.124L172.734 414.8H183.321L185.968 407.124C188.351 406.595 190.733 406.065 192.85 405.271L198.938 410.83L208.202 405.536L206.614 397.331C207.408 396.537 208.467 395.742 209.261 394.948C210.055 394.154 210.849 393.096 211.643 392.301L219.849 393.89L225.143 384.625L219.849 378.538C220.643 376.42 221.172 374.038 221.702 371.656L229.907 369.009ZM178.557 370.597C174.851 370.597 171.675 367.685 171.675 363.715C171.675 360.009 174.587 356.833 178.557 356.833C182.263 356.833 185.439 359.745 185.439 363.715C185.174 367.421 182.263 370.597 178.557 370.597Z" fill="#8AA0C5"/>
<path d="M176.708 353.392H176.443C170.62 353.392 165.855 358.156 165.855 363.979C165.855 369.803 170.62 374.567 176.443 374.567H176.708H189.678V353.657H176.708V353.392Z" fill="#233A3F"/>
<path d="M224.086 246.986V236.398L216.41 233.751C215.88 231.369 215.351 228.987 214.557 226.87L220.115 220.782L220.909 211.518H214.821L206.616 213.106C205.822 212.312 205.028 211.253 204.234 210.459C203.44 209.665 202.381 208.871 201.587 208.077L199.999 194.577H193.911L187.558 199.871C185.441 199.077 183.059 198.548 180.676 198.018L178.03 190.342H167.442L164.795 198.018C162.413 198.548 160.031 199.077 157.913 199.871L157.648 194.577H151.56L142.296 199.871L143.884 208.077C143.09 208.871 142.032 209.665 141.238 210.459C140.444 211.253 139.649 212.312 138.855 213.106L136.738 211.518H130.65L125.356 220.782L130.65 226.87C129.856 228.987 129.326 231.369 128.797 233.751L121.121 236.398V246.986L128.797 249.633C129.326 252.015 129.856 254.397 130.65 256.515L125.091 262.603L130.385 271.867H136.473L138.591 270.279C139.385 271.073 140.179 272.132 140.973 272.926C141.767 273.72 142.826 274.514 143.62 275.308L142.032 283.249L151.296 288.542H157.384L157.648 283.249C159.766 284.043 162.148 284.572 164.53 285.101L167.177 293.042H177.765L180.412 285.366C182.794 284.837 185.176 284.307 187.294 283.513L193.382 289.072H199.469L201.058 275.573C201.852 274.778 202.91 273.984 203.704 273.19C204.499 272.396 205.293 271.338 206.087 270.543L214.292 272.132H220.38L214.292 256.78C215.086 254.662 215.616 252.28 216.145 249.898L224.086 246.986ZM172.736 256.515C164.53 256.515 157.913 249.898 157.913 241.428C157.913 233.222 164.53 226.605 173 226.605C181.206 226.605 187.823 233.222 187.823 241.692C187.558 249.898 180.941 256.515 172.736 256.515Z" fill="#7C93B5"/>
<path d="M230.174 246.986V236.398L222.498 233.751C221.969 231.369 221.44 228.987 220.646 226.87L226.204 220.782L220.91 211.518L212.705 213.106C211.911 212.312 211.117 211.253 210.323 210.459C209.529 209.665 208.47 208.871 207.676 208.077L209.264 199.871L200 194.577L193.647 199.871C191.53 199.077 189.147 198.548 186.765 198.018L184.118 190.342H173.531L170.884 198.018C168.502 198.548 166.119 199.077 164.002 199.871L157.914 194.313L148.65 199.606L150.238 207.812C149.444 208.606 148.385 209.4 147.591 210.194C146.797 210.988 146.003 212.047 145.209 212.841L137.003 211.253L131.71 220.517L137.003 226.605C136.209 228.722 135.68 231.105 135.151 233.487L127.475 236.134V246.721L135.151 249.368C135.68 251.75 136.209 254.133 137.003 256.25L131.445 262.338L136.739 271.602L144.944 270.014C145.738 270.808 146.532 271.867 147.326 272.661C148.12 273.455 149.179 274.249 149.973 275.043L148.385 282.984L157.649 288.278L163.737 282.984C165.855 283.778 168.237 284.307 170.619 284.837L173.266 292.777H183.854L186.501 285.101C188.883 284.572 191.265 284.043 193.383 283.249L199.47 288.807L208.735 283.513L207.146 275.308C207.94 274.514 208.999 273.72 209.793 272.926C210.587 272.132 211.381 271.073 212.176 270.279L220.381 271.867L225.675 262.603L220.381 256.515C221.175 254.397 221.704 252.015 222.234 249.633L230.174 246.986ZM178.56 256.515C170.354 256.515 163.737 249.898 163.737 241.428C163.737 233.222 170.354 226.605 178.825 226.605C187.03 226.605 193.647 233.222 193.647 241.692C193.647 249.898 187.03 256.515 178.56 256.515Z" fill="#8AA0C5"/>
<path d="M178.82 218.929C166.38 218.929 156.057 228.987 156.057 241.692C156.057 254.133 166.115 264.456 178.82 264.456C191.26 264.456 201.583 254.397 201.583 241.692C201.319 229.252 191.26 218.929 178.82 218.929ZM178.555 253.603C171.938 253.603 166.644 248.31 166.644 241.428C166.644 234.81 171.938 229.517 178.82 229.517C185.437 229.517 190.731 234.81 190.731 241.692C190.731 248.31 185.437 253.603 178.555 253.603Z" fill="#8AA0C5"/>
<path d="M256.382 312.629C252.147 312.629 248.971 315.805 248.971 319.776C248.971 323.746 252.147 326.922 256.117 326.922H256.382H265.381V312.629H256.382Z" fill="#E2900E"/>
<path d="M177.499 231.105H177.234C171.411 231.105 166.646 235.869 166.646 241.693C166.646 247.516 171.411 252.28 177.234 252.28H177.499H190.469V231.37H177.499V231.105Z" fill="#233A3F"/>
<path d="M185.442 375.626C179.619 375.626 175.119 370.861 175.119 365.303V241.693C175.119 235.869 179.884 231.37 185.442 231.37C191.265 231.37 195.765 236.134 195.765 241.693V365.303C195.765 370.861 191.001 375.626 185.442 375.626Z" stroke="#E2E5E7" stroke-width="0.7848" stroke-miterlimit="10"/>
<path d="M264.054 326.922C260.348 327.187 256.907 324.54 256.642 320.834L244.731 223.164C244.466 219.458 247.113 216.017 250.819 215.752C254.525 215.488 257.966 218.135 258.23 221.84L270.141 319.511C270.406 323.217 267.759 326.658 264.054 326.922Z" stroke="#E2E5E7" stroke-width="0.7848" stroke-miterlimit="10"/>
<path d="M265.379 325.599C261.144 329.304 254.526 328.775 250.821 324.54L177.502 248.309C173.796 244.074 174.325 237.457 178.56 233.751C182.795 230.046 189.413 230.575 193.118 234.81L266.437 311.041C270.143 315.276 269.614 321.893 265.379 325.599Z" stroke="#E2E5E7" stroke-width="0.7848" stroke-miterlimit="10"/>
<path d="M200.265 241.693C200.265 247.516 195.501 252.28 189.677 252.28C183.854 252.28 179.09 247.516 179.09 241.693C179.09 235.869 183.854 231.105 189.677 231.105C195.765 231.105 200.265 235.869 200.265 241.693Z" fill="#031B4E"/>
<path d="M272.791 319.776C272.791 323.746 269.615 326.922 265.645 326.922C261.674 326.922 258.498 323.746 258.498 319.776C258.498 315.805 261.674 312.629 265.645 312.629C269.35 312.629 272.791 315.805 272.791 319.776Z" fill="#F4A20F"/>
<path d="M200.265 363.715C200.265 369.538 195.501 374.302 189.677 374.302C183.854 374.302 179.09 369.538 179.09 363.715C179.09 357.892 183.854 353.127 189.677 353.127C195.765 353.392 200.265 357.892 200.265 363.715Z" fill="#031B4E"/>
<path d="M252.407 227.928C255.623 227.928 258.23 225.321 258.23 222.105C258.23 218.889 255.623 216.282 252.407 216.282C249.191 216.282 246.584 218.889 246.584 222.105C246.584 225.321 249.191 227.928 252.407 227.928Z" fill="#031B4E"/>
<path d="M341.342 440.475H541.713C542.507 440.475 543.036 439.151 543.036 437.828L542.507 164.403C542.507 162.55 541.978 161.227 541.184 161.227H341.607C340.813 161.227 340.284 162.55 340.284 163.873V437.828C340.019 439.416 340.548 440.475 341.342 440.475Z" fill="white"/>
<path d="M340.18 440.445H387.295L387.295 160.667H340.18L340.18 440.445Z" fill="#DDECF6"/>
<path d="M516.303 343.333H414.927C413.604 343.333 412.545 344.392 412.545 345.716C412.545 347.039 413.604 348.098 414.927 348.098H516.303C517.627 348.098 518.686 347.039 518.686 345.716C518.686 344.128 517.627 343.333 516.303 343.333Z" fill="#DDECF6"/>
<path d="M500.419 335.657H415.189C413.865 335.657 412.807 336.716 412.807 338.039C412.807 339.363 413.865 340.422 415.189 340.422H500.419C501.743 340.422 502.801 339.363 502.801 338.039C502.801 336.716 501.743 335.657 500.419 335.657Z" fill="#DDECF6"/>
<path d="M506.775 327.716L414.927 328.246C413.604 328.246 412.545 329.304 412.545 330.628C412.545 331.951 413.604 333.01 414.927 333.01L506.775 332.481C508.098 332.481 509.157 331.422 509.157 330.099C509.422 328.775 508.363 327.716 506.775 327.716Z" fill="#DDECF6"/>
<path d="M485.332 320.835H415.189C413.865 320.835 412.807 321.894 412.807 323.217C412.807 324.541 413.865 325.599 415.189 325.599H485.332C486.655 325.599 487.714 324.541 487.714 323.217C487.714 321.894 486.655 320.835 485.332 320.835Z" fill="#DDECF6"/>
<path d="M526.097 313.423H414.927C413.604 313.423 412.545 314.482 412.545 315.806C412.545 317.129 413.604 318.188 414.927 318.188H526.097C527.42 318.188 528.479 317.129 528.479 315.806C528.744 314.482 527.42 313.423 526.097 313.423Z" fill="#DDECF6"/>
<path d="M515.242 306.012H415.189C413.865 306.012 412.807 307.071 412.807 308.394C412.807 309.718 413.865 310.777 415.189 310.777H515.242C516.565 310.777 517.624 309.718 517.624 308.394C517.624 307.071 516.565 306.012 515.242 306.012Z" fill="#DDECF6"/>
<path d="M520.803 297.806L414.927 298.336C413.604 298.336 412.545 299.394 412.545 300.718C412.545 302.041 413.604 303.1 414.927 303.1L520.803 302.571C522.127 302.571 523.185 301.512 523.185 300.188C523.185 298.865 522.127 297.806 520.803 297.806Z" fill="#DDECF6"/>
<path d="M508.889 290.925H415.189C413.865 290.925 412.807 291.984 412.807 293.307C412.807 294.631 413.865 295.689 415.189 295.689H508.889C510.213 295.689 511.271 294.631 511.271 293.307C511.271 291.984 510.213 290.925 508.889 290.925Z" fill="#DDECF6"/>
<path d="M515.242 216.017H415.189C413.865 216.017 412.807 217.076 412.807 218.399C412.807 219.723 413.865 220.782 415.189 220.782H515.242C516.565 220.782 517.624 219.723 517.624 218.399C517.624 217.076 516.565 216.017 515.242 216.017Z" fill="#DDECF6"/>
<path d="M520.803 208.076L414.927 208.606C413.604 208.606 412.545 209.665 412.545 210.988C412.545 212.311 413.604 213.37 414.927 213.37L520.803 212.841C522.127 212.841 523.185 211.782 523.185 210.459C523.185 209.135 522.127 208.076 520.803 208.076Z" fill="#DDECF6"/>
<path d="M508.889 201.194H415.189C413.865 201.194 412.807 202.253 412.807 203.577C412.807 204.9 413.865 205.959 415.189 205.959H508.889C510.213 205.959 511.271 204.9 511.271 203.577C511.271 202.253 510.213 201.194 508.889 201.194Z" fill="#DDECF6"/>
<path d="M516.303 275.838H414.927C413.604 275.838 412.545 276.897 412.545 278.22C412.545 279.544 413.604 280.602 414.927 280.602H516.303C517.627 280.602 518.686 279.544 518.686 278.22C518.686 276.897 517.627 275.838 516.303 275.838Z" fill="#DDECF6"/>
<path d="M500.419 268.161H415.189C413.865 268.161 412.807 269.22 412.807 270.543C412.807 271.867 413.865 272.925 415.189 272.925H500.419C501.743 272.925 502.801 271.867 502.801 270.543C502.801 269.22 501.743 268.161 500.419 268.161Z" fill="#DDECF6"/>
<path d="M506.775 260.221L414.927 260.75C413.604 260.75 412.545 261.809 412.545 263.133C412.545 264.456 413.604 265.515 414.927 265.515L506.775 264.985C508.098 264.985 509.157 263.927 509.157 262.603C509.422 261.28 508.363 260.221 506.775 260.221Z" fill="#DDECF6"/>
<path d="M485.332 253.339H415.189C413.865 253.339 412.807 254.398 412.807 255.721C412.807 257.045 413.865 258.104 415.189 258.104H485.332C486.655 258.104 487.714 257.045 487.714 255.721C487.714 254.398 486.655 253.339 485.332 253.339Z" fill="#DDECF6"/>
<path d="M526.097 245.927H414.927C413.604 245.927 412.545 246.986 412.545 248.31C412.545 249.633 413.604 250.692 414.927 250.692H526.097C527.42 250.692 528.479 249.633 528.479 248.31C528.744 246.986 527.42 245.927 526.097 245.927Z" fill="#DDECF6"/>
<path d="M515.242 238.516H415.189C413.865 238.516 412.807 239.575 412.807 240.898C412.807 242.222 413.865 243.281 415.189 243.281H515.242C516.565 243.281 517.624 242.222 517.624 240.898C517.624 239.575 516.565 238.516 515.242 238.516Z" fill="#DDECF6"/>
<path d="M520.803 230.575L414.927 231.105C413.604 231.105 412.545 232.163 412.545 233.487C412.545 234.81 413.604 235.869 414.927 235.869L520.803 235.34C522.127 235.34 523.185 234.281 523.185 232.957C523.185 231.634 522.127 230.575 520.803 230.575Z" fill="#DDECF6"/>
<path d="M508.889 223.693H415.189C413.865 223.693 412.807 224.752 412.807 226.076C412.807 227.399 413.865 228.458 415.189 228.458H508.889C510.213 228.458 511.271 227.399 511.271 226.076C511.271 224.752 510.213 223.693 508.889 223.693Z" fill="#DDECF6"/>
<path d="M105.871 169.696L316.564 169.696V160.696L105.871 160.696V169.696Z" fill="#D1CFCF"/>
<path d="M542.773 160.961H100.211V178.166H542.773V160.961Z" fill="#00BDE0"/>
<path d="M471.571 171.813H517.362C518.421 171.813 519.48 170.755 519.48 169.696C519.48 168.637 518.421 167.578 517.362 167.578H471.571C470.512 167.578 469.453 168.637 469.453 169.696C469.453 170.755 470.512 171.813 471.571 171.813Z" fill="white"/>
<path d="M114.239 166.52C112.386 166.52 111.062 167.844 111.062 169.697C111.062 171.549 112.386 172.873 114.239 172.873C116.092 172.873 117.415 171.549 117.415 169.697C117.415 167.844 116.092 166.52 114.239 166.52Z" fill="#00BDE0"/>
<path d="M123.766 166.52C121.913 166.52 120.59 167.844 120.59 169.697C120.59 171.549 121.913 172.873 123.766 172.873C125.619 172.873 126.942 171.549 126.942 169.697C126.942 167.844 125.619 166.52 123.766 166.52Z" fill="#FFD151"/>
<path d="M133.295 166.52C131.443 166.52 130.119 167.844 130.119 169.697C130.119 171.549 131.443 172.873 133.295 172.873C135.148 172.873 136.472 171.549 136.472 169.697C136.472 167.844 135.148 166.52 133.295 166.52Z" fill="#F26F46"/>
<path d="M323.078 492.618C327.318 492.618 330.754 489.181 330.754 484.942C330.754 480.703 327.318 477.266 323.078 477.266C318.839 477.266 315.402 480.703 315.402 484.942C315.402 489.181 318.839 492.618 323.078 492.618Z" fill="#2F505E"/>
<path d="M621.445 421.947C621.445 379.597 605.299 371.656 605.299 371.656L589.418 368.215L600.005 532.323L602.388 518.03C603.711 525.706 611.387 520.147 616.152 521.735C617.21 516.177 621.181 484.149 622.504 446.563C622.769 442.328 621.445 426.182 621.445 421.947Z" fill="#FBCDB4"/>
<path d="M622.5 411.89C622.5 417.184 590.472 414.272 590.472 414.272L582.267 366.628L596.296 342.011C600.531 344.658 606.883 346.776 609.001 351.276C614.824 362.657 622.5 372.186 622.5 411.89Z" fill="#031B4E"/>
<path d="M568.503 282.72C563.739 273.456 535.417 261.015 527.741 263.927C520.065 266.838 515.3 291.19 522.447 312.365C524.035 317.394 530.652 321.629 531.446 323.747C533.829 326.923 525.623 336.452 530.123 337.246C534.358 338.04 544.681 349.687 549.71 348.628C561.621 351.275 577.503 332.482 574.062 331.688C567.444 330.364 565.062 316.6 565.062 316.6C564.533 298.072 570.621 287.22 568.503 282.72Z" fill="#FBCDB4"/>
<path d="M519.545 267.103C519.545 267.103 515.574 275.044 514.251 287.749C512.663 301.778 521.133 324.012 540.455 324.012C559.778 324.012 565.601 312.101 569.306 302.307C569.306 302.307 574.6 302.307 578.306 295.69C579.894 292.778 580.423 287.749 578.041 285.896C578.041 285.896 578.571 269.485 573.806 263.662C569.042 257.839 535.426 243.016 519.545 267.103Z" fill="#FBCDB4"/>
<path d="M550.247 243.81C555.277 244.605 566.658 245.134 574.334 257.839C581.746 270.28 579.099 279.808 578.834 282.72C578.305 285.896 579.099 286.426 575.922 288.014C572.746 289.602 570.893 293.043 569.835 295.954C568.776 298.601 567.982 300.19 567.452 302.042C566.923 303.631 563.747 302.836 562.953 302.307C562.158 301.778 565.07 294.366 565.335 288.543C565.599 282.72 558.188 277.691 551.042 276.897C543.895 275.838 522.984 274.515 517.955 272.662C512.397 289.602 514.514 298.601 515.044 300.454C515.573 302.307 510.015 293.572 509.485 284.573C508.691 274.515 511.338 257.839 522.19 250.428C533.572 241.693 550.247 243.81 550.247 243.81Z" fill="#20353A"/>
<path d="M512.659 267.897C512.659 267.897 524.57 277.955 533.04 279.544C541.775 281.132 557.127 280.073 557.127 280.073C557.127 280.073 543.628 274.779 540.451 271.338" fill="#20353A"/>
<path opacity="0.37" d="M555.539 296.748C555.539 298.072 554.216 299.131 552.363 299.131C550.51 299.131 548.922 298.072 548.922 296.748C548.922 295.425 550.245 294.366 552.098 294.366C553.951 294.366 555.539 295.425 555.539 296.748Z" fill="#FF8157"/>
<path opacity="0.37" d="M523.516 294.895C523.516 296.219 522.192 297.278 520.339 297.278C518.486 297.278 516.898 296.219 516.898 294.895C516.898 293.572 518.222 292.513 520.075 292.513C522.192 292.513 523.516 293.572 523.516 294.895Z" fill="#FF8157"/>
<path d="M514.248 297.278C514.248 297.278 515.306 300.189 519.277 301.248C521.129 301.777 528.276 297.278 543.628 301.777C550.775 303.895 561.892 298.336 563.215 296.219C564.009 295.16 564.539 292.248 564.539 292.248L572.744 289.602C572.744 289.602 567.715 311.306 561.362 317.129C548.922 328.246 535.158 327.982 526.688 322.953C518.218 318.188 514.248 303.63 514.248 297.278Z" fill="#20353A"/>
<path d="M537.807 313.424C528.807 313.689 529.601 306.807 529.866 306.542C530.131 306.277 530.66 306.013 531.19 306.277C535.954 309.454 542.571 305.748 542.836 305.483C543.101 305.218 543.63 305.218 544.159 305.483C544.424 305.748 544.424 312.1 537.807 313.424Z" fill="white"/>
<path d="M537.809 300.719C537.544 301.248 536.22 301.778 534.368 301.248C532.78 300.719 531.721 299.66 531.985 298.866C532.25 298.602 534.632 292.514 535.691 289.867C535.691 289.602 536.22 289.602 536.22 289.867L537.809 300.719Z" fill="#F9AD98"/>
<path d="M526.428 289.867C526.428 288.808 525.634 288.014 524.84 288.014C524.046 288.014 523.516 289.073 523.516 290.132" stroke="#381E12" stroke-width="0.5" stroke-miterlimit="10" stroke-linecap="round" stroke-linejoin="round"/>
<path d="M550.248 291.454C550.248 290.396 549.719 289.602 548.925 289.602C548.131 289.602 547.601 290.396 547.601 291.454" stroke="#381E12" stroke-width="0.5" stroke-miterlimit="10" stroke-linecap="round" stroke-linejoin="round"/>
<path d="M488.578 369.803C486.99 369.538 469.785 397.066 465.021 397.595C453.904 399.184 416.847 392.302 416.847 392.302L416.053 406.86C416.053 406.86 456.816 419.035 469.786 421.418C473.227 421.947 476.667 420.888 479.05 418.241L504.725 393.36L490.961 381.185L488.578 369.803Z" fill="#FBCDB4"/>
<path d="M521.142 720.783H545.229V733.488H493.084C493.084 723.959 510.819 720.783 521.142 720.783Z" fill="#242535"/>
<path d="M561.355 720.783H585.441V733.488H533.297C533.297 723.959 550.767 720.783 561.355 720.783Z" fill="#2B2C40"/>
<path d="M480.626 368.479C477.979 372.979 504.448 407.124 504.448 407.124V353.127L507.889 338.04C508.154 337.775 492.273 348.627 480.626 368.479Z" fill="#031B4E"/>
<path d="M525.63 331.688L530.13 330.099C530.13 330.099 527.747 337.511 546.805 337.511C561.628 337.511 567.98 327.982 568.775 326.923C577.774 333.54 597.626 342.54 597.626 342.54L598.949 510.354L495.985 508.236L499.69 356.039C499.955 339.099 510.013 336.981 525.63 331.688Z" fill="#031B4E"/>
<path d="M493.6 491.56C545.744 492.619 599.741 489.443 602.123 499.236C604.506 509.295 591.536 544.234 588.889 604.318C587.036 646.669 585.713 721.841 585.713 721.841H555.273L537.804 617.288C537.804 617.288 542.303 558.527 542.039 560.909L537.804 617.288L546.274 721.311L516.628 721.047C516.628 721.047 503.394 664.138 495.718 611.73C492.277 558.262 494.13 505.324 493.6 491.56Z" fill="#59768E"/>
<path d="M567.18 396.536L554.74 392.037L574.327 330.628L583.855 335.922L567.18 396.536Z" fill="#F47F51"/>
<path d="M504.979 396.007L515.038 393.624L517.949 334.334C517.949 334.334 510.273 336.716 508.156 337.775C505.774 338.833 504.979 396.007 504.979 396.007Z" fill="#F47F51"/>
<path d="M556.068 396.537C556.068 397.861 557.126 398.919 558.45 398.919C559.773 398.919 560.832 397.861 560.832 396.537C560.832 395.214 559.773 394.155 558.45 394.155C557.126 394.419 556.068 395.478 556.068 396.537Z" fill="#3B575E"/>
<path d="M509.22 396.537C509.22 397.861 510.279 398.919 511.602 398.919C512.926 398.919 513.984 397.861 513.984 396.537C513.984 395.214 512.926 394.155 511.602 394.155C510.279 394.419 509.22 395.478 509.22 396.537Z" fill="#3B575E"/>
<path d="M570.093 327.717C570.093 327.717 546.006 382.244 546.006 412.154C546.006 441.799 547.595 509.295 547.595 509.295C547.595 509.295 585.181 511.412 603.18 511.412L598.151 405.801C598.151 405.801 598.68 345.716 603.709 345.716L570.093 327.717Z" fill="#F4A20F"/>
<path d="M528.01 330.629C528.01 330.629 504.982 333.54 503.129 342.54C499.688 358.686 490.159 467.739 492.806 509.03H522.981C522.981 509.03 522.187 339.099 528.01 330.629Z" fill="#F4A20F"/>
<path d="M554.742 368.48H599.475L598.945 381.979H550.772L554.742 368.48Z" fill="white"/>
<path d="M546.804 401.036C549.451 401.036 598.419 401.036 598.419 401.036L598.684 414.8L546.01 415.33C546.01 415.065 546.01 406.065 546.804 401.036Z" fill="white"/>
<path d="M499.952 368.48H524.568L524.039 381.979H498.629L499.952 368.48Z" fill="white"/>
<path d="M496.78 401.036C499.427 401.036 523.514 401.036 523.514 401.036L523.249 414.8L495.456 415.33C495.721 415.065 496.251 406.33 496.78 401.036Z" fill="white"/>
<path d="M505.247 278.22C505.777 275.838 510.541 274.515 510.541 274.515C510.541 274.515 508.953 280.338 510.012 286.69C510.012 287.22 503.659 285.102 505.247 278.22Z" fill="#381E12"/>
<path d="M582.803 295.69C583.067 298.072 576.715 299.395 575.391 299.131C578.567 295.69 579.097 292.513 579.097 292.513C579.097 292.513 582.008 291.719 582.803 295.69Z" fill="#381E12"/>
<path d="M582.803 294.102C582.803 294.102 582.274 293.308 582.803 291.19C584.391 279.544 590.214 244.605 546.276 239.576C518.483 236.399 507.896 263.398 506.572 273.985C506.308 276.897 505.249 278.22 505.249 278.22C505.249 278.22 538.335 265.78 582.803 294.102Z" fill="#F4A20F"/>
<path opacity="0.07" d="M575.131 251.751C575.131 251.751 565.073 243.546 555.544 245.928C549.191 247.781 540.986 253.339 537.545 273.985L535.957 273.721C535.957 273.721 537.28 261.81 543.897 253.339C551.838 243.016 555.809 243.811 559.779 244.075C567.984 244.075 575.131 251.751 575.131 251.751Z" fill="#343031"/>
<path opacity="0.07" d="M564.275 242.222C554.747 237.193 533.571 240.105 533.571 240.105C519.543 244.604 514.514 273.72 514.514 273.72L516.631 273.456C516.631 273.456 521.925 248.31 529.336 245.928C536.748 243.281 564.275 242.222 564.275 242.222Z" fill="#343031"/>
<path d="M573.543 250.163C573.543 250.163 563.22 242.487 553.691 245.134C547.339 246.987 538.339 256.251 534.898 276.632L515.311 275.044C515.311 275.044 520.87 244.075 534.898 239.575C535.163 239.575 557.132 227.4 573.543 250.163Z" fill="#F4A20F"/>
<path opacity="0.07" d="M582.809 294.366C582.809 294.366 565.604 284.308 554.222 281.132C543.105 277.956 529.871 275.838 525.106 275.573C520.342 275.309 508.695 276.367 506.843 277.161C504.99 278.22 504.99 278.22 504.99 278.22C504.99 278.22 506.578 275.044 507.107 272.926C508.695 271.868 513.46 272.397 521.93 272.397C531.459 272.662 556.604 273.456 582.544 291.455C582.544 291.455 582.279 293.308 582.809 294.366Z" fill="#343031"/>
<path d="M578.305 299.925C580.423 299.395 582.54 298.337 583.07 296.484C583.334 295.69 583.864 294.102 581.746 292.513C573.011 285.367 558.189 279.279 541.249 275.838C525.897 272.926 511.074 270.544 502.869 273.985C499.957 275.044 499.163 277.161 499.163 278.22C499.163 281.396 503.398 284.573 507.104 286.426L509.75 287.749L509.486 284.573L508.427 284.043C506.309 282.985 504.986 281.396 504.986 280.073C504.986 279.279 506.045 278.75 506.839 278.22C519.809 273.191 561.1 279.014 579.893 294.366C581.482 295.69 577.776 297.543 575.923 297.543C575.394 298.072 574.07 299.66 573.011 300.19C573.541 300.454 576.717 300.454 578.305 299.925Z" fill="#F4A20F"/>
<path d="M420.284 383.567C420.284 383.567 417.372 383.567 416.843 385.42C416.313 387.537 417.107 388.331 420.019 388.067C422.93 388.067 422.136 384.096 420.284 383.567Z" fill="#FBCDB4"/>
<path d="M463.689 344.922L366.548 347.569C361.519 347.833 357.284 343.598 357.019 338.569L355.696 293.043C355.431 288.013 359.666 283.778 364.695 283.514L461.836 280.867C466.866 280.602 471.101 284.837 471.365 289.866L472.689 335.393C472.953 340.422 468.983 344.657 463.689 344.922Z" fill="#00A2C0"/>
<path d="M405.981 271.868L411.275 456.886C411.275 457.945 412.069 458.739 412.863 458.739L420.539 458.474C420.803 458.474 421.068 458.21 421.333 458.21C421.862 457.945 422.127 457.151 422.127 456.622L416.833 271.603L405.981 271.868Z" fill="#2F505E"/>
<g opacity="0.2">
<path d="M408.104 350.216L419.221 349.687L418.956 345.981L408.104 346.511V350.216Z" fill="#231F20"/>
</g>
<g opacity="0.2">
<path d="M406.247 282.72L417.1 282.455V278.749L405.983 279.014L406.247 282.72Z" fill="#231F20"/>
</g>
<path d="M458.928 344.922L361.787 347.569C356.758 347.833 352.523 343.598 352.258 338.569L350.935 293.043C350.67 288.013 354.905 283.778 359.934 283.514L457.075 280.867C462.105 280.602 466.34 284.837 466.604 289.866L467.928 335.393C467.928 340.422 463.957 344.657 458.928 344.922Z" fill="#00BDE0"/>
<path d="M395.2 307.632C394.24 307.632 393.493 307.456 392.96 307.104C392.427 306.752 392.059 306.251 391.856 305.6C391.653 304.95 391.552 304.171 391.552 303.264V294.496H393.856V303.536C393.856 303.942 393.883 304.326 393.936 304.688C393.989 305.04 394.112 305.328 394.304 305.552C394.507 305.766 394.805 305.872 395.2 305.872C395.616 305.872 395.915 305.766 396.096 305.552C396.288 305.328 396.411 305.04 396.464 304.688C396.528 304.326 396.56 303.942 396.56 303.536V294.496H398.848V303.264C398.848 304.171 398.747 304.95 398.544 305.6C398.341 306.251 397.973 306.752 397.44 307.104C396.917 307.456 396.171 307.632 395.2 307.632ZM400.71 307.456V294.496H402.358L405.51 301.888V294.496H407.462V307.456H405.894L402.726 299.712V307.456H400.71ZM409.429 307.456V294.496H412.485C413.541 294.496 414.362 294.64 414.949 294.928C415.546 295.216 415.968 295.659 416.213 296.256C416.469 296.854 416.597 297.611 416.597 298.528V303.264C416.597 304.203 416.469 304.987 416.213 305.616C415.968 306.235 415.552 306.699 414.965 307.008C414.389 307.307 413.594 307.456 412.581 307.456H409.429ZM411.797 305.808H412.517C413.061 305.808 413.45 305.712 413.685 305.52C413.92 305.328 414.064 305.051 414.117 304.688C414.17 304.315 414.197 303.862 414.197 303.328V298.368C414.197 297.846 414.16 297.424 414.085 297.104C414.01 296.784 413.856 296.55 413.621 296.4C413.386 296.251 413.008 296.176 412.485 296.176H411.797V305.808ZM418.335 307.456V294.496H423.775V296.16H420.703V299.888H423.119V301.536H420.703V305.824H423.807V307.456H418.335ZM425.179 307.456V294.496H428.283C429.158 294.496 429.894 294.603 430.491 294.816C431.099 295.019 431.558 295.371 431.867 295.872C432.187 296.374 432.347 297.056 432.347 297.92C432.347 298.443 432.299 298.912 432.203 299.328C432.107 299.744 431.942 300.102 431.707 300.4C431.483 300.688 431.168 300.912 430.763 301.072L432.571 307.456H430.203L428.635 301.52H427.547V307.456H425.179ZM427.547 300.032H428.283C428.742 300.032 429.104 299.968 429.371 299.84C429.648 299.702 429.846 299.488 429.963 299.2C430.08 298.902 430.139 298.523 430.139 298.064C430.139 297.414 430.016 296.928 429.771 296.608C429.536 296.278 429.083 296.112 428.411 296.112H427.547V300.032ZM367.995 331.632C367.046 331.632 366.299 331.446 365.755 331.072C365.222 330.699 364.849 330.192 364.635 329.552C364.422 328.902 364.315 328.155 364.315 327.312V322.688C364.315 321.803 364.422 321.035 364.635 320.384C364.849 319.734 365.222 319.232 365.755 318.88C366.299 318.528 367.046 318.352 367.995 318.352C368.891 318.352 369.59 318.507 370.091 318.816C370.603 319.115 370.966 319.547 371.179 320.112C371.393 320.678 371.499 321.334 371.499 322.08V323.168H369.227V322.048C369.227 321.686 369.206 321.355 369.163 321.056C369.131 320.758 369.03 320.523 368.859 320.352C368.699 320.171 368.417 320.08 368.011 320.08C367.606 320.08 367.307 320.176 367.115 320.368C366.934 320.55 366.817 320.8 366.763 321.12C366.71 321.43 366.683 321.782 366.683 322.176V327.808C366.683 328.278 366.721 328.667 366.795 328.976C366.87 329.275 367.003 329.504 367.195 329.664C367.398 329.814 367.67 329.888 368.011 329.888C368.406 329.888 368.683 329.798 368.843 329.616C369.014 329.424 369.121 329.174 369.163 328.864C369.206 328.555 369.227 328.208 369.227 327.824V326.656H371.499V327.696C371.499 328.464 371.398 329.147 371.195 329.744C370.993 330.331 370.635 330.795 370.123 331.136C369.622 331.467 368.913 331.632 367.995 331.632ZM376.668 331.632C375.751 331.632 375.02 331.462 374.476 331.12C373.932 330.779 373.543 330.288 373.308 329.648C373.073 329.008 372.956 328.251 372.956 327.376V322.528C372.956 321.654 373.073 320.907 373.308 320.288C373.543 319.659 373.932 319.179 374.476 318.848C375.02 318.518 375.751 318.352 376.668 318.352C377.607 318.352 378.343 318.518 378.876 318.848C379.42 319.179 379.809 319.659 380.044 320.288C380.289 320.907 380.412 321.654 380.412 322.528V327.392C380.412 328.256 380.289 329.008 380.044 329.648C379.809 330.278 379.42 330.768 378.876 331.12C378.343 331.462 377.607 331.632 376.668 331.632ZM376.668 329.888C377.063 329.888 377.351 329.803 377.532 329.632C377.724 329.462 377.852 329.227 377.916 328.928C377.98 328.63 378.012 328.304 378.012 327.952V321.984C378.012 321.622 377.98 321.296 377.916 321.008C377.852 320.72 377.724 320.496 377.532 320.336C377.351 320.166 377.063 320.08 376.668 320.08C376.295 320.08 376.012 320.166 375.82 320.336C375.628 320.496 375.5 320.72 375.436 321.008C375.372 321.296 375.34 321.622 375.34 321.984V327.952C375.34 328.304 375.367 328.63 375.42 328.928C375.484 329.227 375.612 329.462 375.804 329.632C375.996 329.803 376.284 329.888 376.668 329.888ZM382.164 331.456V318.496H383.812L386.964 325.888V318.496H388.916V331.456H387.348L384.18 323.712V331.456H382.164ZM394.146 331.632C393.368 331.632 392.717 331.483 392.194 331.184C391.672 330.875 391.277 330.427 391.01 329.84C390.744 329.254 390.594 328.534 390.562 327.68L392.594 327.28C392.616 327.782 392.674 328.224 392.77 328.608C392.877 328.992 393.032 329.291 393.234 329.504C393.448 329.707 393.725 329.808 394.066 329.808C394.45 329.808 394.722 329.696 394.882 329.472C395.042 329.238 395.122 328.944 395.122 328.592C395.122 328.027 394.994 327.563 394.738 327.2C394.482 326.838 394.141 326.475 393.714 326.112L392.082 324.672C391.624 324.278 391.256 323.84 390.978 323.36C390.712 322.87 390.578 322.267 390.578 321.552C390.578 320.528 390.877 319.739 391.474 319.184C392.072 318.63 392.888 318.352 393.922 318.352C394.53 318.352 395.037 318.448 395.442 318.64C395.848 318.822 396.168 319.078 396.402 319.408C396.648 319.739 396.829 320.118 396.946 320.544C397.064 320.96 397.138 321.403 397.17 321.872L395.154 322.224C395.133 321.819 395.085 321.456 395.01 321.136C394.946 320.816 394.824 320.566 394.642 320.384C394.472 320.203 394.216 320.112 393.874 320.112C393.522 320.112 393.25 320.23 393.058 320.464C392.877 320.688 392.786 320.971 392.786 321.312C392.786 321.75 392.877 322.112 393.058 322.4C393.24 322.678 393.501 322.966 393.842 323.264L395.458 324.688C395.992 325.136 396.445 325.664 396.818 326.272C397.202 326.87 397.394 327.595 397.394 328.448C397.394 329.067 397.256 329.616 396.978 330.096C396.712 330.576 396.333 330.955 395.842 331.232C395.362 331.499 394.797 331.632 394.146 331.632ZM400.085 331.456V320.24H398.021V318.496H404.485V320.24H402.453V331.456H400.085ZM405.664 331.456V318.496H408.768C409.642 318.496 410.378 318.603 410.976 318.816C411.584 319.019 412.042 319.371 412.352 319.872C412.672 320.374 412.832 321.056 412.832 321.92C412.832 322.443 412.784 322.912 412.688 323.328C412.592 323.744 412.426 324.102 412.192 324.4C411.968 324.688 411.653 324.912 411.248 325.072L413.056 331.456H410.688L409.12 325.52H408.032V331.456H405.664ZM408.032 324.032H408.768C409.226 324.032 409.589 323.968 409.856 323.84C410.133 323.702 410.33 323.488 410.448 323.2C410.565 322.902 410.624 322.523 410.624 322.064C410.624 321.414 410.501 320.928 410.256 320.608C410.021 320.278 409.568 320.112 408.896 320.112H408.032V324.032ZM418.122 331.632C417.162 331.632 416.415 331.456 415.882 331.104C415.348 330.752 414.98 330.251 414.778 329.6C414.575 328.95 414.474 328.171 414.474 327.264V318.496H416.778V327.536C416.778 327.942 416.804 328.326 416.858 328.688C416.911 329.04 417.034 329.328 417.226 329.552C417.428 329.766 417.727 329.872 418.122 329.872C418.538 329.872 418.836 329.766 419.018 329.552C419.21 329.328 419.332 329.04 419.386 328.688C419.45 328.326 419.482 327.942 419.482 327.536V318.496H421.77V327.264C421.77 328.171 421.668 328.95 421.466 329.6C421.263 330.251 420.895 330.752 420.362 331.104C419.839 331.456 419.092 331.632 418.122 331.632ZM427.12 331.632C426.171 331.632 425.424 331.446 424.88 331.072C424.347 330.699 423.974 330.192 423.76 329.552C423.547 328.902 423.44 328.155 423.44 327.312V322.688C423.44 321.803 423.547 321.035 423.76 320.384C423.974 319.734 424.347 319.232 424.88 318.88C425.424 318.528 426.171 318.352 427.12 318.352C428.016 318.352 428.715 318.507 429.216 318.816C429.728 319.115 430.091 319.547 430.304 320.112C430.518 320.678 430.624 321.334 430.624 322.08V323.168H428.352V322.048C428.352 321.686 428.331 321.355 428.288 321.056C428.256 320.758 428.155 320.523 427.984 320.352C427.824 320.171 427.542 320.08 427.136 320.08C426.731 320.08 426.432 320.176 426.24 320.368C426.059 320.55 425.942 320.8 425.888 321.12C425.835 321.43 425.808 321.782 425.808 322.176V327.808C425.808 328.278 425.846 328.667 425.92 328.976C425.995 329.275 426.128 329.504 426.32 329.664C426.523 329.814 426.795 329.888 427.136 329.888C427.531 329.888 427.808 329.798 427.968 329.616C428.139 329.424 428.246 329.174 428.288 328.864C428.331 328.555 428.352 328.208 428.352 327.824V326.656H430.624V327.696C430.624 328.464 430.523 329.147 430.32 329.744C430.118 330.331 429.76 330.795 429.248 331.136C428.747 331.467 428.038 331.632 427.12 331.632ZM433.569 331.456V320.24H431.505V318.496H437.969V320.24H435.937V331.456H433.569ZM439.212 331.456V318.496H441.548V331.456H439.212ZM447.074 331.632C446.157 331.632 445.426 331.462 444.882 331.12C444.338 330.779 443.949 330.288 443.714 329.648C443.479 329.008 443.362 328.251 443.362 327.376V322.528C443.362 321.654 443.479 320.907 443.714 320.288C443.949 319.659 444.338 319.179 444.882 318.848C445.426 318.518 446.157 318.352 447.074 318.352C448.013 318.352 448.749 318.518 449.282 318.848C449.826 319.179 450.215 319.659 450.45 320.288C450.695 320.907 450.818 321.654 450.818 322.528V327.392C450.818 328.256 450.695 329.008 450.45 329.648C450.215 330.278 449.826 330.768 449.282 331.12C448.749 331.462 448.013 331.632 447.074 331.632ZM447.074 329.888C447.469 329.888 447.757 329.803 447.938 329.632C448.13 329.462 448.258 329.227 448.322 328.928C448.386 328.63 448.418 328.304 448.418 327.952V321.984C448.418 321.622 448.386 321.296 448.322 321.008C448.258 320.72 448.13 320.496 447.938 320.336C447.757 320.166 447.469 320.08 447.074 320.08C446.701 320.08 446.418 320.166 446.226 320.336C446.034 320.496 445.906 320.72 445.842 321.008C445.778 321.296 445.746 321.622 445.746 321.984V327.952C445.746 328.304 445.773 328.63 445.826 328.928C445.89 329.227 446.018 329.462 446.21 329.632C446.402 329.803 446.69 329.888 447.074 329.888ZM452.57 331.456V318.496H454.218L457.37 325.888V318.496H459.322V331.456H457.754L454.586 323.712V331.456H452.57Z" fill="white"/>
<path d="M414.459 387.273C414.459 387.273 420.018 388.067 421.606 398.654C423.194 408.448 422.929 409.771 418.429 410.301C413.93 411.095 405.989 413.742 403.342 407.918C400.695 402.095 399.636 389.39 404.401 387.802C409.165 386.214 414.459 387.273 414.459 387.273Z" fill="#FBCDB4"/>
<path d="M550.775 577.055V564.35L560.039 561.173C560.568 558.262 561.362 555.615 562.156 552.968L555.539 545.557L554.745 534.44H561.892L571.685 536.293C572.744 535.234 573.538 534.175 574.597 533.116C575.655 532.058 576.714 530.999 577.773 530.205L579.626 514.059H586.772L594.184 520.411C596.831 519.352 599.478 518.823 602.389 518.294L605.565 509.03H618.271L621.447 518.294C624.358 518.823 627.005 519.617 629.652 520.411L629.917 514.059H637.064L648.181 520.411L646.328 530.205C647.386 531.264 648.445 532.058 649.504 533.116C650.563 534.175 651.622 535.234 652.416 536.293L654.798 534.44H661.944L668.297 545.292L661.944 552.703C663.003 555.35 663.533 558.262 664.062 560.909L673.326 564.085V576.79L664.062 579.967C663.533 582.878 662.739 585.525 661.944 588.172L668.562 595.583L662.209 606.7H655.063L652.68 604.847C651.622 605.906 650.827 606.965 649.769 608.024C648.71 609.082 647.651 610.141 646.592 610.935L648.445 620.464L637.328 626.817H630.182L629.917 620.464C627.27 621.523 624.358 622.052 621.712 622.582L618.535 631.846H605.83L602.654 622.582C599.742 622.052 597.095 621.258 594.448 620.464L587.037 627.081H579.89L578.038 610.935C576.979 609.877 575.92 609.082 574.861 608.024C573.803 606.965 573.008 605.906 571.95 604.847L562.156 606.7H555.01L562.421 588.172C561.362 585.525 560.833 582.878 560.303 579.967L550.775 577.055ZM610.33 604.053C628.858 604.053 643.946 588.966 643.946 570.173C643.946 551.645 628.858 536.557 610.065 536.557C591.537 536.557 576.45 551.645 576.45 570.438C576.45 589.231 591.802 604.053 610.33 604.053Z" fill="#7C93B5"/>
<path d="M543.628 577.055V564.35L552.892 561.173C553.422 558.262 554.216 555.615 555.01 552.968L548.393 545.557L554.745 534.44L564.539 536.292C565.597 535.234 566.391 534.175 567.45 533.116C568.509 532.057 569.568 530.999 570.626 530.205L568.774 520.676L579.626 514.323L587.037 520.676C589.684 519.617 592.331 519.087 595.243 518.558L598.419 509.294H611.124L614.3 518.558C617.212 519.087 619.859 519.882 622.506 520.676L629.917 514.058L641.034 520.411L639.181 530.205C640.24 531.263 641.299 532.057 642.358 533.116C643.416 534.175 644.475 535.234 645.269 536.292L654.798 534.44L661.151 545.292L654.798 552.703C655.857 555.35 656.386 558.262 656.916 560.909L666.18 564.085V576.79L656.916 579.966C656.386 582.878 655.592 585.525 654.798 588.172L661.415 595.583L655.063 606.7L645.269 604.847C644.21 605.906 643.416 606.965 642.358 608.023C641.299 609.082 640.24 610.141 639.181 610.935L641.034 620.464L629.917 626.817L622.506 620.464C619.859 621.523 616.947 622.052 614.3 622.581L611.124 631.846H598.419L595.243 622.581C592.331 622.052 589.684 621.258 587.037 620.464L579.626 627.081L568.509 620.729L570.362 610.935C569.303 609.876 568.244 609.082 567.186 608.023C566.127 606.965 565.333 605.906 564.274 604.847L554.48 606.7L548.128 595.583L554.48 588.172C553.422 585.525 552.892 582.878 552.363 579.966L543.628 577.055ZM601.86 604.053C620.388 604.053 635.476 588.966 635.476 570.173C635.476 551.644 620.388 536.557 601.595 536.557C583.067 536.557 567.98 551.644 567.98 570.437C568.244 589.23 583.332 604.053 601.86 604.053Z" fill="#8AA0C5"/>
<path d="M594.978 512.471C594.978 512.471 596.831 507.178 607.419 507.442C617.212 507.707 618.536 507.972 618.536 512.471C618.536 516.971 619.859 525.441 613.507 527.029C607.419 528.617 594.449 527.294 593.92 522.53C592.861 517.5 594.978 512.471 594.978 512.471Z" fill="#FBCDB4"/>
</g>
<path d="M371.602 737.753H252.491V751.517C252.491 761.311 279.225 768.987 312.046 768.987C344.868 768.987 371.602 761.046 371.602 751.517V737.753Z" fill="#F4A20F"/>
<path d="M312.046 720.284C344.868 720.284 371.602 727.96 371.602 737.753C371.602 747.282 344.868 755.223 312.046 755.223C279.225 755.223 252.491 747.547 252.491 737.753C252.491 727.96 279.225 720.284 312.046 720.284Z" fill="white"/>
<path d="M312.046 720.284C344.868 720.284 371.602 727.96 371.602 737.753C371.602 747.282 344.868 755.223 312.046 755.223C279.225 755.223 252.491 747.547 252.491 737.753C252.491 727.96 279.225 720.284 312.046 720.284Z" fill="#E2900E"/>
<path d="M349.893 730.607L323.16 629.23C321.836 624.201 317.337 620.76 312.043 620.76H311.778C306.484 620.76 301.985 624.201 300.661 629.23L273.927 730.607C273.663 731.136 273.398 731.666 273.398 732.195C273.398 738.547 290.603 743.841 311.778 743.841C332.953 743.841 350.158 738.547 350.158 732.195C350.423 731.666 350.423 731.401 349.893 730.607Z" fill="#F4A20F"/>
<path d="M312.044 714.99C298.28 714.99 286.369 712.872 279.752 709.696L286.633 683.492C293.251 685.344 302.25 686.403 312.044 686.403C321.837 686.403 330.572 685.344 337.454 683.492L344.336 709.696C337.719 712.872 325.808 714.99 312.044 714.99ZM312.044 670.786C304.103 670.786 296.692 669.992 290.604 668.14L296.956 644.582C301.456 645.376 306.75 645.906 312.044 645.906C317.338 645.906 322.631 645.376 327.131 644.582L333.484 668.14C327.396 669.728 319.984 670.786 312.044 670.786Z" fill="white"/>
<path d="M147.299 666.511H49.3634V677.628C49.3634 685.569 71.3327 692.186 98.3311 692.186C125.33 692.186 147.299 685.834 147.299 677.628V666.511Z" fill="#F4A20F"/>
<path d="M98.0635 652.218C125.062 652.218 147.031 658.57 147.031 666.511C147.031 674.452 125.062 680.804 98.0635 680.804C71.0651 680.804 49.0958 674.452 49.0958 666.511C49.0958 658.57 71.0651 652.218 98.0635 652.218Z" fill="white"/>
<path d="M98.0635 652.218C125.062 652.218 147.031 658.57 147.031 666.511C147.031 674.452 125.062 680.804 98.0635 680.804C71.0651 680.804 49.0958 674.452 49.0958 666.511C49.0958 658.57 71.0651 652.218 98.0635 652.218Z" fill="#E2900E"/>
<path d="M129.299 660.688L107.329 577.311C106.271 573.34 102.565 570.429 98.33 570.429H98.0653C93.8302 570.429 90.1246 573.34 89.0658 577.311L67.0965 660.688C66.8318 661.217 66.8318 661.482 66.8318 662.012C66.8318 667.305 81.1251 671.54 98.33 671.54C115.8 671.54 129.828 667.305 129.828 662.012C129.828 661.482 129.828 661.217 129.299 660.688Z" fill="#F4A20F"/>
<path d="M98.067 647.983C86.9501 647.983 77.1565 646.395 71.3333 643.483L77.1565 621.778C82.715 623.367 90.1263 624.161 98.067 624.161C106.008 624.161 113.419 623.367 118.978 621.778L124.801 643.483C119.242 646.13 109.449 647.983 98.067 647.983ZM98.067 611.455C91.7145 611.455 85.6266 610.661 80.3328 609.338L85.3619 590.016C89.0675 590.81 93.5673 591.074 97.8023 591.074C102.302 591.074 106.537 590.81 110.243 590.016L115.272 609.338C110.772 610.661 104.684 611.455 98.067 611.455Z" fill="white"/>
</svg>
